<?xml version="1.0" encoding="utf-8"?>
<!-- Generator: Adobe Illustrator 16.0.0, SVG Export Plug-In . SVG Version: 6.00 Build 0)  -->
<!DOCTYPE svg PUBLIC "-//W3C//DTD SVG 1.1//EN" "http://www.w3.org/Graphics/SVG/1.1/DTD/svg11.dtd">
<svg version="1.1" id="Layer_1" xmlns="http://www.w3.org/2000/svg" xmlns:xlink="http://www.w3.org/1999/xlink" x="0px" y="0px"
	 width="512px" height="512px" viewBox="0 0 512 512" enable-background="new 0 0 512 512" xml:space="preserve">
<path fill="#E3E3E3" d="M76.16,227.662c-5.018,0-6.474,2.232-6.474,7.14v8.144h13.391l-1.338,13.169H69.686v39.944H53.62v-39.944
	H42.8v-13.169h10.82v-7.923c0-13.273,5.357-20.301,20.308-20.301c3.237,0,7.028,0.221,9.371,0.554v12.386"/>
<path fill="#E3E3E3" d="M84.193,267.827c0-14.839,7.028-25.998,21.756-25.998c8.034,0,12.941,4.131,15.284,9.26v-8.144h15.4v53.105
	h-15.4v-8.025c-2.232,5.129-7.25,9.142-15.284,9.142c-14.728,0-21.756-11.152-21.756-25.992 M100.259,271.397
	c0,7.923,2.904,13.163,10.376,13.163c6.584,0,9.932-4.798,9.932-12.381v-5.356c0-7.59-3.348-12.386-9.932-12.386
	c-7.472,0-10.376,5.247-10.376,13.169V271.397z"/>
<path fill="#E3E3E3" d="M170.098,241.829c6.245,0,12.164,1.338,15.394,3.57l-3.569,11.381c-2.454-1.227-6.467-2.454-10.709-2.454
	c-8.706,0-12.497,5.018-12.497,13.613v3.119c0,8.595,3.791,13.613,12.497,13.613c4.242,0,8.255-1.227,10.709-2.454l3.569,11.381
	c-3.23,2.232-9.149,3.57-15.394,3.57c-18.853,0-27.448-10.155-27.448-26.443v-2.454C142.65,251.983,151.245,241.829,170.098,241.829
	"/>
<path fill="#E3E3E3" d="M187.614,271.509v-4.686c0-15.061,8.587-24.994,26.109-24.994c16.51,0,23.76,10.043,23.76,24.771v8.478
	H203.68c0.333,7.257,3.57,10.487,12.497,10.487c6.023,0,12.386-1.228,17.071-3.23l2.898,11.041
	c-4.236,2.232-12.941,3.903-20.641,3.903C195.203,297.279,187.614,287.131,187.614,271.509 M203.68,264.591h19.414v-1.337
	c0-5.802-2.343-10.377-9.371-10.377C206.466,252.877,203.68,257.452,203.68,264.591"/>
<path fill="#E3E3E3" d="M297.063,271.169c0,14.839-7.14,25.998-21.867,25.998c-8.034,0-13.613-4.02-15.845-9.148v8.032h-15.173
	v-79.776l16.067-1.449v35.481c2.343-4.686,7.472-8.477,14.951-8.477c14.728,0,21.867,11.152,21.867,25.992 M280.997,267.488
	c0-7.479-2.904-13.052-10.598-13.052c-6.584,0-10.154,4.686-10.154,12.269v5.58c0,7.589,3.57,12.275,10.154,12.275
	c7.693,0,10.598-5.58,10.598-13.059V267.488z"/>
<path fill="#E3E3E3" d="M302.414,270.837v-2.677c0-15.283,8.699-26.331,26.442-26.331c17.737,0,26.442,11.048,26.442,26.331v2.677
	c0,15.289-8.705,26.331-26.442,26.331C311.113,297.168,302.414,286.126,302.414,270.837 M339.232,267.045
	c0-7.028-2.903-12.607-10.376-12.607c-7.479,0-10.376,5.579-10.376,12.607v4.906c0,7.029,2.897,12.608,10.376,12.608
	c7.473,0,10.376-5.579,10.376-12.608V267.045z"/>
<path fill="#E3E3E3" d="M360.65,270.837v-2.677c0-15.283,8.698-26.331,26.442-26.331c17.737,0,26.442,11.048,26.442,26.331v2.677
	c0,15.289-8.705,26.331-26.442,26.331C369.349,297.168,360.65,286.126,360.65,270.837 M397.469,267.045
	c0-7.028-2.904-12.607-10.376-12.607c-7.479,0-10.376,5.579-10.376,12.607v4.906c0,7.029,2.897,12.608,10.376,12.608
	c7.472,0,10.376-5.579,10.376-12.608V267.045z"/>
<polyline fill="#E3E3E3" points="435.618,268.271 451.463,242.945 468.534,242.945 451.906,269.165 469.2,296.052 452.136,296.052 
	435.618,270.06 435.618,296.052 419.553,296.052 419.553,216.28 435.618,214.825 "/>
</svg>
