<svg xmlns="http://www.w3.org/2000/svg" viewBox="0 0 128 128">
  <title>native-man</title>
  <g style="isolation: isolate">
    <g id="Layer_1" data-name="Layer 1">
      <g>
        <path d="M73,16A26,26,0,0,0,37.91,40.36v68h52v-68A26,26,0,0,0,73,16Z" fill="#333"/>
        <path d="M120.39,110.94a14.58,14.58,0,0,0-10.11-11.41L79.91,92.34v-18h-32v18L17.7,99.53A14.58,14.58,0,0,0,7.59,110.94L7,114.57a140.89,140.89,0,0,0,57,12.11H64a140.89,140.89,0,0,0,57-12.11Z" fill="#dcb091"/>
        <path d="M110.28,105.58l-30.2-8.9h-32l-30.38,8.9A14.6,14.6,0,0,0,8.08,115,140.92,140.92,0,0,0,64,126.68H64A140.84,140.84,0,0,0,119.89,115,14.56,14.56,0,0,0,110.28,105.58Z" fill="#cba082"/>
        <path d="M107.87,104.87c-6.31-1.62-28-8.53-28-8.53v-22h-32v8l39.35,42.33A140.49,140.49,0,0,0,119.89,115C118.87,109.74,113.09,106.22,107.87,104.87Z" fill="#c09577"/>
        <g>
          <g>
            <g>
              <path d="M44,18.85a20,20,0,0,0,10.3,10.91A20,20,0,0,0,44.19,3.85,20,20,0,0,0,44,18.85Z" fill="#d5e7e5"/>
              <path d="M44,18.85a20,20,0,0,0,10.3,10.91A20,20,0,0,0,44.19,3.85,20,20,0,0,0,44,18.85Z" fill="#738380"/>
              <path d="M54.49,14.76A20,20,0,0,0,44.19,3.85L54.32,29.76A20,20,0,0,0,54.49,14.76Z" fill="#809490"/>
              <path d="M42.81,14l6.44,2.82,2.82-6.44a19.63,19.63,0,0,0-3.61-3.83l-1.71,3.88-3.88-1.7A19.77,19.77,0,0,0,42.81,14Z" fill="#ae4355"/>
              <path d="M49.25,16.8l2.82-6.44a19.63,19.63,0,0,0-3.61-3.83l-1.71,3.88Z" fill="#c3576f"/>
              <path d="M44,18.85a20,20,0,0,0,10.3,10.91A20,20,0,0,0,44.19,3.85,20,20,0,0,0,44,18.85Z" fill="none" stroke="#333" stroke-linejoin="round" stroke-width="3"/>
            </g>
            <g>
              <path d="M36.56,30.53A20,20,0,0,0,51,34.62,20,20,0,0,0,29,17.56,20,20,0,0,0,36.56,30.53Z" fill="#d5e7e5"/>
              <path d="M36.56,30.53A20,20,0,0,0,51,34.62,20,20,0,0,0,29,17.56,20,20,0,0,0,36.56,30.53Z" fill="#738380"/>
              <path d="M43.45,21.65A20,20,0,0,0,29,17.56L51,34.62A20,20,0,0,0,43.45,21.65Z" fill="#809490"/>
              <path d="M33,27l7-.88-.88-7a19.91,19.91,0,0,0-5.07-1.44l.53,4.21-4.21.53A19.55,19.55,0,0,0,33,27Z" fill="#ae4355"/>
              <path d="M40,26.09l-.88-7a19.91,19.91,0,0,0-5.07-1.44l.53,4.21Z" fill="#c3576f"/>
              <path d="M36.56,30.53A20,20,0,0,0,51,34.62,20,20,0,0,0,29,17.56,20,20,0,0,0,36.56,30.53Z" fill="none" stroke="#333" stroke-linejoin="round" stroke-width="3"/>
            </g>
            <g>
              <path d="M34.08,42.71A20,20,0,0,0,48.83,40a20,20,0,0,0-27.28-5.49A20,20,0,0,0,34.08,42.71Z" fill="#d5e7e5"/>
              <path d="M34.08,42.71A20,20,0,0,0,48.83,40a20,20,0,0,0-27.28-5.49A20,20,0,0,0,34.08,42.71Z" fill="#738380"/>
              <path d="M36.3,31.69a20,20,0,0,0-14.75,2.77L48.83,40A20,20,0,0,0,36.3,31.69Z" fill="#809490"/>
              <path d="M29.33,41.09l5.86-3.89-3.9-5.85a20,20,0,0,0-5.18,1l2.35,3.54L24.92,38.2A19.87,19.87,0,0,0,29.33,41.09Z" fill="#ae4355"/>
              <path d="M35.19,37.2l-3.9-5.85a20,20,0,0,0-5.18,1l2.35,3.54Z" fill="#c3576f"/>
              <path d="M34.08,42.71A20,20,0,0,0,48.83,40a20,20,0,0,0-27.28-5.49A20,20,0,0,0,34.08,42.71Z" fill="none" stroke="#333" stroke-linejoin="round" stroke-width="3"/>
            </g>
            <g>
              <path d="M35.26,55.07a20,20,0,0,0,13.84-5.8,20.05,20.05,0,0,0-27.83.35A20,20,0,0,0,35.26,55.07Z" fill="#d5e7e5"/>
              <path d="M35.26,55.07a20,20,0,0,0,13.84-5.8,20.05,20.05,0,0,0-27.83.35A20,20,0,0,0,35.26,55.07Z" fill="#738380"/>
              <path d="M35.11,43.83a20.06,20.06,0,0,0-13.84,5.79l27.83-.35A20,20,0,0,0,35.11,43.83Z" fill="#809490"/>
              <path d="M30.27,54.48l4.92-5-5-4.91a19.89,19.89,0,0,0-4.86,2l3,3-3,3A19.64,19.64,0,0,0,30.27,54.48Z" fill="#ae4355"/>
              <path d="M35.19,49.45l-5-4.91a19.89,19.89,0,0,0-4.86,2l3,3Z" fill="#c3576f"/>
              <path d="M35.26,55.07a20,20,0,0,0,13.84-5.8,20.05,20.05,0,0,0-27.83.35A20,20,0,0,0,35.26,55.07Z" fill="none" stroke="#333" stroke-linejoin="round" stroke-width="3"/>
            </g>
          </g>
          <g>
            <g>
              <path d="M84,18.85A20,20,0,0,1,73.66,29.76,20,20,0,0,1,83.8,3.85,20,20,0,0,1,84,18.85Z" fill="#d5e7e5"/>
              <path d="M84,18.85A20,20,0,0,1,73.66,29.76,20,20,0,0,1,83.8,3.85,20,20,0,0,1,84,18.85Z" fill="#738380"/>
              <path d="M73.5,14.76A20,20,0,0,1,83.8,3.85L73.66,29.76A20,20,0,0,1,73.5,14.76Z" fill="#809490"/>
              <path d="M85.17,14,78.73,16.8l-2.82-6.44a19.68,19.68,0,0,1,3.62-3.83l1.7,3.88,3.89-1.7A19.77,19.77,0,0,1,85.17,14Z" fill="#ae4355"/>
              <path d="M78.73,16.8l-2.82-6.44a19.68,19.68,0,0,1,3.62-3.83l1.7,3.88Z" fill="#c3576f"/>
              <path d="M84,18.85A20,20,0,0,1,73.66,29.76,20,20,0,0,1,83.8,3.85,20,20,0,0,1,84,18.85Z" fill="none" stroke="#333" stroke-linejoin="round" stroke-width="3"/>
            </g>
            <g>
              <path d="M91.43,30.53A20,20,0,0,1,77,34.62,20,20,0,0,1,99,17.56,20,20,0,0,1,91.43,30.53Z" fill="#d5e7e5"/>
              <path d="M91.43,30.53A20,20,0,0,1,77,34.62,20,20,0,0,1,99,17.56,20,20,0,0,1,91.43,30.53Z" fill="#738380"/>
              <path d="M84.54,21.65A20,20,0,0,1,99,17.56L77,34.62A20,20,0,0,1,84.54,21.65Z" fill="#809490"/>
              <path d="M95,27l-7-.88.89-7a19.8,19.8,0,0,1,5.07-1.44l-.53,4.21,4.21.53A19.55,19.55,0,0,1,95,27Z" fill="#ae4355"/>
              <path d="M88,26.09l.89-7a19.8,19.8,0,0,1,5.07-1.44l-.53,4.21Z" fill="#c3576f"/>
              <path d="M91.43,30.53A20,20,0,0,1,77,34.62,20,20,0,0,1,99,17.56,20,20,0,0,1,91.43,30.53Z" fill="none" stroke="#333" stroke-linejoin="round" stroke-width="3"/>
            </g>
            <g>
              <path d="M93.91,42.71A20,20,0,0,1,79.16,40a20,20,0,0,1,27.28-5.49A20,20,0,0,1,93.91,42.71Z" fill="#d5e7e5"/>
              <path d="M93.91,42.71A20,20,0,0,1,79.16,40a20,20,0,0,1,27.28-5.49A20,20,0,0,1,93.91,42.71Z" fill="#738380"/>
              <path d="M91.69,31.69a20,20,0,0,1,14.75,2.77L79.16,40A20,20,0,0,1,91.69,31.69Z" fill="#809490"/>
              <path d="M98.66,41.09,92.8,37.2l3.89-5.85a20,20,0,0,1,5.19,1l-2.35,3.54,3.53,2.35A19.81,19.81,0,0,1,98.66,41.09Z" fill="#ae4355"/>
              <path d="M92.8,37.2l3.89-5.85a20,20,0,0,1,5.19,1l-2.35,3.54Z" fill="#c3576f"/>
              <path d="M93.91,42.71A20,20,0,0,1,79.16,40a20,20,0,0,1,27.28-5.49A20,20,0,0,1,93.91,42.71Z" fill="none" stroke="#333" stroke-linejoin="round" stroke-width="3"/>
            </g>
            <g>
              <path d="M92.73,55.07a20,20,0,0,1-13.84-5.8,20,20,0,0,1,27.82.35A20,20,0,0,1,92.73,55.07Z" fill="#d5e7e5"/>
              <path d="M92.73,55.07a20,20,0,0,1-13.84-5.8,20,20,0,0,1,27.82.35A20,20,0,0,1,92.73,55.07Z" fill="#738380"/>
              <path d="M92.87,43.83a20,20,0,0,1,13.84,5.79l-27.82-.35A20,20,0,0,1,92.87,43.83Z" fill="#809490"/>
              <path d="M97.71,54.48l-4.91-5,5-4.91a20.05,20.05,0,0,1,4.86,2l-3,3,3,3A19.56,19.56,0,0,1,97.71,54.48Z" fill="#ae4355"/>
              <path d="M92.8,49.45l5-4.91a20.05,20.05,0,0,1,4.86,2l-3,3Z" fill="#c3576f"/>
              <path d="M92.73,55.07a20,20,0,0,1-13.84-5.8,20,20,0,0,1,27.82.35A20,20,0,0,1,92.73,55.07Z" fill="none" stroke="#333" stroke-linejoin="round" stroke-width="3"/>
            </g>
          </g>
        </g>
        <path d="M85.91,50.23v-6c0-9.92-6.12-20-22-20s-22,10-22,20v6c-4.06,0-4.92,3.64-4,8a11.09,11.09,0,0,0,6,8v4c0,4,5.5,11.9,11.28,16.25a8.7,8.7,0,0,0,5.25,1.75h7a8.77,8.77,0,0,0,5.24-1.74c5.8-4.33,11.28-12.25,11.28-16.26v-4a11,11,0,0,0,6-8C90.85,53.87,89.91,50.23,85.91,50.23Z" fill="#dcb091"/>
        <path d="M85.91,50.23v-6c0-9.92-6.12-20-22-20s-22,10-22,20v6c-4.06,0-4.92,3.64-4,8a11.09,11.09,0,0,0,6,8v4c0,4,5.5,11.9,11.28,16.25a8.7,8.7,0,0,0,5.25,1.75h7a8.77,8.77,0,0,0,5.24-1.74c5.8-4.33,11.28-12.25,11.28-16.26v-4a11,11,0,0,0,6-8C90.85,53.87,89.91,50.23,85.91,50.23Z" fill="none" stroke="#333" stroke-linecap="round" stroke-linejoin="round" stroke-width="4"/>
        <path d="M85.91,50.23v-6c0-9.92-6.12-20-22-20a33.22,33.22,0,0,0-5.06.39c-3.75,14.84-7.21,21.65-6.93,40.25,0,4.21.6,12.91,1.24,19.93.66.6,1.34,1.16,2,1.68a8.7,8.7,0,0,0,5.25,1.75h7a8.77,8.77,0,0,0,5.24-1.74c5.8-4.33,11.28-12.25,11.28-16.26v-4a11,11,0,0,0,6-8C90.85,53.87,89.91,50.23,85.91,50.23Z" fill="#cba082"/>
        <path d="M63.91,24.23c-15.88,0-22,10-22,20v9.11L62.19,63.48a4.06,4.06,0,0,0,3.61,0l20.11-9.75V44.23C85.91,34.31,79.79,24.23,63.91,24.23Z" fill="#ae4355" opacity="0.7" style="mix-blend-mode: multiply"/>
        <path d="M73.91,30.58c3.38.76,8,4.56,8,8,0,3.3,2,4,2,7.92L84,54.61l5.9-6.27v-8a26,26,0,1,0-52,0v8l6,6V46.58c0-3.95,2-4.66,2-8,0-3.47,2.61-7.25,6-8A45.86,45.86,0,0,1,73.91,30.58Z" fill="#333"/>
        <path d="M85.91,50.23v-6c0-9.92-6.12-20-22-20s-22,10-22,20v6c-4.06,0-4.92,3.64-4,8a11.09,11.09,0,0,0,6,8v4c0,4,5.5,11.9,11.28,16.25a8.7,8.7,0,0,0,5.25,1.75h7a8.77,8.77,0,0,0,5.24-1.74c5.8-4.33,11.28-12.25,11.28-16.26v-4a11,11,0,0,0,6-8C90.85,53.87,89.91,50.23,85.91,50.23Z" fill="none" stroke="#333" stroke-linecap="round" stroke-linejoin="round" stroke-width="4"/>
        <path d="M53.31,54.34a2,2,0,1,1-2,2,2,2,0,0,1,2-2" fill="#333"/>
        <path d="M75,54.34a2,2,0,1,1-2,2,2,2,0,0,1,2-2" fill="#333"/>
        <path d="M47.45,93s0,0,0-.07L17.7,99.53A14.56,14.56,0,0,0,7.59,110.94L7,114.57a140.89,140.89,0,0,0,57,12.11H64a140.89,140.89,0,0,0,57-12.11l-.59-3.63a14.56,14.56,0,0,0-10.11-11.41L80.53,92.89V93" fill="none" stroke="#333" stroke-linejoin="round" stroke-width="4"/>
        <line x1="79.91" y1="80.34" x2="79.91" y2="90.34" fill="none" stroke="#333" stroke-linecap="round" stroke-linejoin="round" stroke-width="4"/>
        <line x1="47.91" y1="90.34" x2="47.91" y2="80.34" fill="none" stroke="#333" stroke-linecap="round" stroke-linejoin="round" stroke-width="4"/>
        <g>
          <path d="M36.65,98.21,64,106.15l27.34-7.94A36.59,36.59,0,0,0,80.48,90.4L64,95.19,47.49,90.4A36.66,36.66,0,0,0,36.65,98.21Z" fill="#993637"/>
          <path d="M64,95.19,47.49,90.4a47.76,47.76,0,0,0-6.32,3.81L64,100.84l22.83-6.63a49.16,49.16,0,0,0-6.34-3.81Z" fill="#eee5bc"/>
          <path d="M36.65,98.21,64,106.15l27.34-7.94A36.59,36.59,0,0,0,80.48,90.4L64,95.19,47.49,90.4A36.66,36.66,0,0,0,36.65,98.21Z" fill="none" stroke="#333" stroke-linecap="round" stroke-linejoin="round" stroke-width="3"/>
          <path d="M64,95.19,47.49,90.4a50.32,50.32,0,0,0-6.11,3.66L64,100.63,86.6,94.06a49,49,0,0,0-6.12-3.66Z" fill="none" stroke="#333" stroke-linecap="round" stroke-linejoin="round" stroke-width="3"/>
        </g>
        <path d="M37.69,47.68C42.22,44.53,53.39,42,64,42s21.78,2.53,26.31,5.68c1.91-1.33,1-5.49,1-7.09,0-5.38-12.23-11.13-27.32-11.13S36.68,35.21,36.68,40.59C36.68,42.19,35.78,46.35,37.69,47.68Z" fill="#809490"/>
        <path d="M64,34c-15.08,0-27.31,5.74-27.31,11.13,0,.2,0,.43,0,.7a2.89,2.89,0,0,0,1,1.85C42.22,44.53,53.39,42,64,42s21.78,2.53,26.31,5.68a2.84,2.84,0,0,0,1-1.85c0-.27,0-.5,0-.7C91.31,39.74,79.08,34,64,34Z" fill="#6a807c"/>
        <path d="M37.69,47.68C42.22,44.53,53.39,42,64,42s21.78,2.53,26.31,5.68c1.91-1.33,1-5.49,1-7.09,0-5.38-12.23-11.13-27.32-11.13S36.68,35.21,36.68,40.59C36.68,42.19,35.78,46.35,37.69,47.68Z" fill="none" stroke="#333" stroke-linejoin="round" stroke-width="4"/>
        <g>
          <path d="M55.91,22A28.77,28.77,0,0,0,64,42,28.79,28.79,0,0,0,64,2,28.77,28.77,0,0,0,55.91,22Z" fill="#d5e7e5"/>
          <path d="M55.91,22A28.77,28.77,0,0,0,64,42,28.79,28.79,0,0,0,64,2,28.77,28.77,0,0,0,55.91,22Z" fill="#d5e7e5"/>
          <path d="M72.07,22A28.73,28.73,0,0,0,64,2V42A28.73,28.73,0,0,0,72.07,22Z" fill="#b9cdca"/>
          <path d="M56.85,14.85,64,22l7.15-7.15a28.6,28.6,0,0,0-2.83-7L64,12.13,59.68,7.82A28.21,28.21,0,0,0,56.85,14.85Z" fill="#5e463a"/>
          <path d="M64,22l7.15-7.15a28.6,28.6,0,0,0-2.83-7L64,12.13Z" fill="#735343"/>
          <path d="M55.91,22A28.77,28.77,0,0,0,64,42,28.79,28.79,0,0,0,64,2,28.77,28.77,0,0,0,55.91,22Z" fill="none" stroke="#333" stroke-linejoin="round" stroke-width="3"/>
        </g>
        <g>
          <g>
            <path d="M31.91,100.34a23.89,23.89,0,0,0,6,16,24.33,24.33,0,0,0,0-32A23.89,23.89,0,0,0,31.91,100.34Z" fill="#d5e7e5"/>
            <path d="M31.91,100.34a23.89,23.89,0,0,0,6,16,24.33,24.33,0,0,0,0-32A23.89,23.89,0,0,0,31.91,100.34Z" fill="#d5e7e5"/>
            <path d="M43.91,100.34a24,24,0,0,0-6-16v32A24,24,0,0,0,43.91,100.34Z" fill="#b9cdca"/>
            <path d="M32.6,94.62l5.31,5.72,5.3-5.72A23.66,23.66,0,0,0,41.11,89l-3.2,3.45L34.7,89A23.66,23.66,0,0,0,32.6,94.62Z" fill="#5e463a"/>
            <path d="M37.91,100.34l5.3-5.72A23.66,23.66,0,0,0,41.11,89l-3.2,3.45Z" fill="#735343"/>
            <path d="M31.91,100.34a23.89,23.89,0,0,0,6,16,24.33,24.33,0,0,0,0-32A23.89,23.89,0,0,0,31.91,100.34Z" fill="none" stroke="#333" stroke-linejoin="round" stroke-width="3"/>
          </g>
          <line x1="37.91" y1="80.55" x2="37.91" y2="64.34" fill="none" stroke="#913124" stroke-linecap="round" stroke-linejoin="round" stroke-width="3"/>
        </g>
        <path d="M40.91,121.34a3,3,0,1,1-3-3A3,3,0,0,1,40.91,121.34Z" fill="#993637"/>
        <g>
          <g>
            <path d="M95.91,100.34a23.94,23.94,0,0,1-6,16,24.33,24.33,0,0,1,0-32A23.94,23.94,0,0,1,95.91,100.34Z" fill="#d5e7e5"/>
            <path d="M95.91,100.34a23.94,23.94,0,0,1-6,16,24.33,24.33,0,0,1,0-32A23.94,23.94,0,0,1,95.91,100.34Z" fill="#d5e7e5"/>
            <path d="M83.91,100.34a23.94,23.94,0,0,1,6-16v32A23.94,23.94,0,0,1,83.91,100.34Z" fill="#b9cdca"/>
            <path d="M95.21,94.62l-5.3,5.72L84.6,94.62A23.66,23.66,0,0,1,86.7,89l3.21,3.45L93.11,89A23.66,23.66,0,0,1,95.21,94.62Z" fill="#5e463a"/>
            <path d="M89.91,100.34,84.6,94.62A23.66,23.66,0,0,1,86.7,89l3.21,3.45Z" fill="#735343"/>
            <path d="M95.91,100.34a23.94,23.94,0,0,1-6,16,24.33,24.33,0,0,1,0-32A23.94,23.94,0,0,1,95.91,100.34Z" fill="none" stroke="#333" stroke-linejoin="round" stroke-width="3"/>
          </g>
          <line x1="89.91" y1="80.55" x2="89.91" y2="64.34" fill="none" stroke="#913124" stroke-linecap="round" stroke-linejoin="round" stroke-width="3"/>
        </g>
        <path d="M86.91,121.34a3,3,0,1,0,3-3A3,3,0,0,0,86.91,121.34Z" fill="#993637"/>
        <line x1="59.91" y1="74.34" x2="67.91" y2="74.34" fill="none" stroke="#333" stroke-linecap="round" stroke-miterlimit="10" stroke-width="2"/>
        <line x1="63.51" y1="78.34" x2="64.97" y2="78.34" fill="none" stroke="#333" stroke-linecap="round" stroke-miterlimit="10" stroke-width="2"/>
        <path d="M60.68,68.14l2,.61a5.48,5.48,0,0,0,3.16,0l2-.61" fill="none" stroke="#333" stroke-linecap="round" stroke-miterlimit="10" stroke-width="2"/>
      </g>
    </g>
  </g>
</svg>
