<svg id="Layer_1" data-name="Layer 1" xmlns="http://www.w3.org/2000/svg" viewBox="0 0 128 128">
  <title>nikola-tesla</title>
  <g>
    <g>
      <g>
        <path d="M114,95.46c-2-4.57-3.3-4.78-8-6-12.88-3.35-24.07-6-42-6s-29.12,2.65-42,6c-4.7,1.22-6,1.43-8,6-2.89,6.5-4,10-4,10,.31.19,23.9,10,54,10s53.69-9.76,54-10C118,105.41,116.89,102,114,95.46Z" fill="#444649"/>
        <g>
          <g>
            <path d="M106.43,97.42c-10.71-2.77-22.78-6-42.43-6-17.93,0-29.55,2.62-42.43,6-4.33,1.13-7.55,4.65-9.23,8.91a156.79,156.79,0,0,0,51.66,9,160.92,160.92,0,0,0,51.64-9.07C114,102.05,110.74,98.55,106.43,97.42Z" fill="#383838"/>
            <path d="M78,89.46c-3,9.23-8.73,15-14,24.44l0,0c-6.91-10.27-11.5-16.42-14-24.41v-12H78.18Z" fill="#d1d8db" stroke="#333" stroke-linejoin="round" stroke-width="3"/>
            <polygon points="50 71.46 50 77.46 64 93.46 78 77.46 78 71.46 50 71.46" fill="#edccc3" stroke="#333" stroke-miterlimit="10" stroke-width="3"/>
            <g>
              <path d="M64,115.44c1.38,0,2.74,0,4.09-.07L91.3,94.58l-5-5.5L94,85.46l-16-6c0,18.15-6,22-15.94,36Z" fill="#444649" stroke="#333" stroke-linejoin="round" stroke-width="4"/>
              <path d="M64,115.44c-1.38,0-2.74,0-4.09-.07L36.7,94.58l5-5.5L34,85.46l16-6c0,18.15,6,22,15.94,36Z" fill="#444649" stroke="#333" stroke-linejoin="round" stroke-width="4"/>
            </g>
            <g>
              <path d="M86,43.45v-6c0-11.86-7.61-20-22-20s-22,8.17-22,20v6c-3.85,0-3.92,3.94-3,8.15.72,3.42,3.1,7.85,5,7.85C44,69,53.87,78.16,58.47,80.58a11.45,11.45,0,0,0,5.53.88,11.45,11.45,0,0,0,5.53-.88C74.14,78.15,84,69,84,59.42c1.92,0,4.3-4.4,5-7.82C89.92,47.39,89.85,43.45,86,43.45Z" fill="#edccc3"/>
              <path d="M86,43.45v-6c0-11.86-7.61-20-22-20-1.47,0-2.85.09-4.17.21C56.7,32,54.16,49.62,54.34,60.48c0,3.83.85,11.36,1.56,18.08a27.75,27.75,0,0,0,3.14,2,11.25,11.25,0,0,0,5.42.92,10.48,10.48,0,0,0,5.07-.87C74.14,78.15,84,69,84,59.42c1.92,0,4.3-4.4,5-7.82C89.92,47.39,89.85,43.45,86,43.45Z" fill="#e5c2ba"/>
            </g>
          </g>
          <line x1="60" y1="69.48" x2="68" y2="69.48" fill="none" stroke="#333" stroke-linecap="round" stroke-miterlimit="10" stroke-width="2"/>
        </g>
        <line x1="63" y1="73.48" x2="65" y2="73.48" fill="none" stroke="#333" stroke-linecap="round" stroke-miterlimit="10" stroke-width="2"/>
        <path d="M86,43.45v-6c0-11.86-7.61-20-22-20s-22,8.17-22,20v6c-3.85,0-3.92,3.94-3,8.15.72,3.42,3.1,7.85,5,7.85,0,6,9.87,18.71,14.47,21.13a11.45,11.45,0,0,0,5.53.88,11.45,11.45,0,0,0,5.53-.88C74.14,78.15,84,65.46,84,59.42c1.92,0,4.3-4.4,5-7.82C89.92,47.39,89.85,43.45,86,43.45Z" fill="none" stroke="#333" stroke-linejoin="round" stroke-width="4"/>
        <path d="M42,33.46v11s3.09,1.24,4,4v-15Z" fill="#343433" stroke="#343433" stroke-linejoin="round" stroke-width="2"/>
        <path d="M86,33.46v11s-3.09,1.24-4,4v-15Z" fill="#343433" stroke="#343433" stroke-linejoin="round" stroke-width="2"/>
        <path d="M21.5,89.43a66.31,66.31,0,0,1,4,22" fill="none" stroke="#444649" stroke-miterlimit="10" stroke-width="2"/>
        <path d="M20,89.43a66.31,66.31,0,0,1,4,22" fill="none" stroke="#383838" stroke-miterlimit="10" stroke-width="2"/>
        <path d="M108,89.43a66.31,66.31,0,0,0-4,22" fill="none" stroke="#383838" stroke-miterlimit="10" stroke-width="3"/>
        <path d="M106.5,89.43a66.31,66.31,0,0,0-4,22" fill="none" stroke="#444649" stroke-miterlimit="10" stroke-width="2"/>
        <path d="M35.7,86.27c-4.61.94-9,2.06-13.7,3.27s-6,1.43-8,6c-2.89,6.5-4,9.95-4,9.95.31.19,23.9,10,54,10s53.69-9.76,54-10c0,0-1.11-3.45-4-9.95-2-4.57-3.3-4.78-8-6s-9-2.32-13.63-3.25" fill="none" stroke="#333" stroke-linejoin="round" stroke-width="4"/>
      </g>
      <g>
        <circle cx="54.4" cy="50.7" r="1.5" fill="#333"/>
        <circle cx="73.6" cy="50.7" r="1.5" fill="#333"/>
      </g>
      <path d="M60,60.7l2.2.6a5.55,5.55,0,0,0,3.6,0l2.2-.6" fill="none" stroke="#333" stroke-linecap="round" stroke-miterlimit="10" stroke-width="2"/>
      <line x1="64" y1="93.46" x2="64" y2="111.46" fill="#383a39" stroke="#333" stroke-miterlimit="10" stroke-width="3"/>
      <path d="M73.55,69.46A.44.44,0,0,0,74,69v-.58a2,2,0,0,0-.72-1.34C70.91,65,69,63.15,67.18,63.15c-1.39,0-2.32.58-3.19.58s-1.81-.58-3.2-.58c-1.81,0-3.75,2-6.1,3.94A1.82,1.82,0,0,0,54,68.45V69a.51.51,0,0,0,.5.5A.45.45,0,0,0,55,69v-.54a.18.18,0,0,1,.16-.18c.81-.12,4.45-.63,5.57-.81A5.17,5.17,0,0,0,64,66.12a5.29,5.29,0,0,0,3.3,1.36l5.49.79a.32.32,0,0,1,.27.31V69a.45.45,0,0,0,.45.45Z" fill="#343433" fill-rule="evenodd"/>
      <path d="M89,29.75a29.8,29.8,0,0,0-6.59-10.4C78.93,15.61,72.1,9.58,64,15.46c-8.1-5.88-14.93.15-18.44,3.89A29.8,29.8,0,0,0,39,29.75a6.4,6.4,0,0,0,1,6.11l5.45,6.89a4.4,4.4,0,0,0,5.76-1.13,64.06,64.06,0,0,1,4.32-4.82,4.39,4.39,0,0,1,5.94-1l.12.08a4.36,4.36,0,0,0,4.86,0l.12-.08a4.39,4.39,0,0,1,5.94,1,64.06,64.06,0,0,1,4.32,4.82,4.4,4.4,0,0,0,5.76,1.13L88,35.86A6.4,6.4,0,0,0,89,29.75Z" fill="#343433" stroke="#343433" stroke-miterlimit="10" stroke-width="2" fill-rule="evenodd"/>
      <path d="M49.74,23.75c1.61-1.71,4.63-3.95,10.45-7.38-5.86-1.66-10,1.74-12.94,5.09-3.53,4-8.12,9.75-4.37,14.28C43,33.56,45.25,28.52,49.74,23.75Z" fill="#444" fill-rule="evenodd"/>
      <g>
        <path d="M82.18,83.46l-2.18-8s-8.18,9.18-12.19,13.7L78,101.46Z" fill="#d1d8db"/>
        <path d="M45.82,83.46l2.18-8s8.18,9.18,12.19,13.7L50,101.46Z" fill="#d1d8db"/>
        <polyline points="59.82 89.46 50 101.46 45.82 83.46 48 75.46 64 93.46 80 75.46 82.18 83.46 78 101.46 68.18 89.46" fill="none" stroke="#333" stroke-linejoin="round" stroke-width="3"/>
      </g>
    </g>
    <path d="M66,30.08V17.84a.85.85,0,0,1,.28-.64A6.43,6.43,0,0,1,70,15.46a20,20,0,0,0-1.82,3.16.88.88,0,0,0,.73,1.24,5.91,5.91,0,0,1,2.26.6,8.28,8.28,0,0,0-3.08,3,.46.46,0,0,0,.33.7,4.51,4.51,0,0,1,2.41.87A4.55,4.55,0,0,0,68,27.46c1.46.13,2.34.66,3.67,2.16a17.62,17.62,0,0,0-4.46,1.24A.86.86,0,0,1,66,30.08Z" fill="#444"/>
  </g>
</svg>
