<svg id="Layer_1" data-name="Layer 1" xmlns="http://www.w3.org/2000/svg" viewBox="0 0 128 128">
  <title>traditional-japanese-woman</title>
  <g>
    <path d="M64.36,121.05,92.51,82.83s21-3.32,22.44,29.55a126.86,126.86,0,0,1-50.59,10.67A125.55,125.55,0,0,1,14,112.38c1.41-32.87,22.44-29.55,22.44-29.55Z" fill="#6681af"/>
    <path d="M113.59,113c-5-26.19-25.77-23.74-25.77-23.74L64.36,121.06,41.1,89.22S20.31,86.76,15.35,113a125.67,125.67,0,0,0,49,10.1A124.67,124.67,0,0,0,113.59,113Z" fill="#526b99"/>
    <g>
      <path d="M104.46,29.07c0,13.85-17.87,25.07-39.91,25.07S24.63,42.92,24.63,29.07,42.5,4,64.55,4,104.46,15.22,104.46,29.07Z" fill="#333"/>
      <path d="M87.82,88.6c-3.28-.94-9.1-3.5-10.56-6V68.21H51.72V82.5c-1.64,3-6.86,5.36-10.62,6.1a27.8,27.8,0,0,0,46.74,0Z" fill="#e1ae89"/>
      <path d="M51.72,74.48v8c-1.64,3-6.86,5.36-10.62,6.1" fill="none" stroke="#333" stroke-linecap="round" stroke-linejoin="round" stroke-width="4"/>
      <path d="M89,41.71a.88.88,0,0,1-.16,0,39,39,0,0,0-.43-4c-1.5-9.71-8.52-21.06-23.93-21.06S42.11,27.93,40.7,37.66c-.21,1.38-.34,2.71-.43,4a.88.88,0,0,1-.16,0c-2.73.79-4.42,3.52-3.16,7.86,1.08,3.72,4,7.41,6.5,7.9l.76,3.64C46.89,74.52,59.62,80.3,64.46,80.3S82.22,74.52,85,61l.72-3.59c2.5-.57,5.32-4.2,6.38-7.87C93.4,45.23,91.71,42.5,89,41.71Z" fill="#ede7d9"/>
      <path d="M89.5,43.21s.35,0,.72-.93l-.13-.09a5.38,5.38,0,0,0-1.33,0,33.68,33.68,0,0,0-.46-4.49c-1.43-9.77-8.44-21.12-23.85-21.12-.6,0-1.18.05-1.76.08l-.6,2.71a113.78,113.78,0,0,0-6.7,40.33,143.53,143.53,0,0,0,1.06,18,23.54,23.54,0,0,0,4.29,1.93,18.39,18.39,0,0,0,3.69.72h0C69.33,80.29,82.17,74.38,85,61H85l.72-3.58c2.5-.57,5.32-4.2,6.38-7.87.74-2.55.44-4.53-.47-5.9A2.46,2.46,0,0,0,89.5,43.21Z" fill="#e9dcc6"/>
      <g>
        <path d="M48.79,52.08a5.45,5.45,0,0,1,10.9,0" fill="#ae4355"/>
        <path d="M69.4,52.08a5.45,5.45,0,0,1,10.9,0" fill="#ae4355"/>
      </g>
      <path d="M89,41.71a.88.88,0,0,1-.16,0,39,39,0,0,0-.43-4c-1.5-9.71-8.52-21.06-23.93-21.06S42.11,27.93,40.7,37.66c-.21,1.38-.34,2.71-.43,4a.88.88,0,0,1-.16,0c-2.73.79-4.42,3.52-3.16,7.86,1.08,3.72,4,7.41,6.5,7.9l.76,3.64C46.89,74.52,59.62,80.3,64.46,80.3S82.22,74.52,85,61l.72-3.59c2.5-.57,5.32-4.2,6.38-7.87C93.4,45.23,91.71,42.5,89,41.71Z" fill="none" stroke="#333" stroke-linecap="round" stroke-linejoin="round" stroke-width="4"/>
      <g>
        <path d="M54.21,50.8a2.05,2.05,0,0,1,2.25,1.75,2.32,2.32,0,0,1-4.5,0,2,2,0,0,1,2.25-1.75" fill="#333"/>
        <path d="M74.72,50.8A2,2,0,0,1,77,52.55a2.32,2.32,0,0,1-4.5,0,2.05,2.05,0,0,1,2.25-1.75" fill="#333"/>
      </g>
      <path d="M87.82,88.6c-3.28-.94-9.1-3.5-10.56-6v-8" fill="none" stroke="#333" stroke-linecap="round" stroke-linejoin="round" stroke-width="4"/>
      <path d="M88.82,41.69a39,39,0,0,0-.43-4c-1.5-9.71-8.52-21.06-23.93-21.06S42.11,27.93,40.7,37.66c-.21,1.38-.34,2.71-.43,4a.88.88,0,0,1-.16,0c-.13,0-.25.1-.38.15v0s4.18-1.54,5.27,3.64c0,0-.64-3.74,2.14-5.3s-3-13.67,17.34-10.14v0h.13C84.93,26.56,79.16,38.67,82,40.23s2.14,5.3,2.14,5.3c1.09-5.18,5.27-3.64,5.27-3.64v0c-.13,0-.25-.11-.38-.15A.88.88,0,0,1,88.82,41.69Z" fill="#5a5654"/>
      <path d="M88.18,41.68c-1.86-9.44-8.9-19.93-23.72-19.93S42.68,32.23,40.91,41.68c1.32-.06,3.37.43,4.09,3.85,0,0-.64-3.74,2.14-5.3s-3-13.67,17.34-10.14v0h.13C84.93,26.56,79.16,38.67,82,40.23s2.14,5.3,2.14,5.3C84.81,42.12,86.86,41.62,88.18,41.68Z" fill="#3f3e3d"/>
      <path d="M88.82,41.69a39,39,0,0,0-.43-4c-1.5-9.71-8.52-21.06-23.93-21.06S42.11,27.93,40.7,37.66c-.21,1.38-.34,2.71-.43,4a.88.88,0,0,1-.16,0c-.13,0-.25.1-.38.15v0s4.18-1.54,5.27,3.64c0,0-.64-3.74,2.14-5.3s-3-13.67,17.34-10.14v0h.13C84.93,26.56,79.16,38.67,82,40.23s2.14,5.3,2.14,5.3c1.09-5.18,5.27-3.64,5.27-3.64v0c-.13,0-.25-.11-.38-.15A.88.88,0,0,1,88.82,41.69Z" fill="none" stroke="#3f3e3d" stroke-miterlimit="10" stroke-width="2"/>
      <g>
        <path d="M44.91,52.73c0-5.86,1.71-5.59,2-7.2s-.5-8.7-.5-8.7l-4.68-4s-9.48-4.65-12,11,4.92,21.44,16.54,21.44C48.25,65.35,44.91,58.59,44.91,52.73Z" fill="#333"/>
        <path d="M84.18,52.73c0-5.86-1.71-5.59-2-7.2s.5-8.7.5-8.7l4.68-4s9.48-4.65,12,11S94.46,65.35,82.83,65.35C80.84,65.35,84.18,58.59,84.18,52.73Z" fill="#333"/>
      </g>
      <path d="M74.92,19.35c0,7.59-4.69,13.74-10.48,13.74S54,26.94,54,19.35s4.7-8.94,10.48-8.94S74.92,11.76,74.92,19.35Z" fill="#5a5654"/>
      <path d="M72.46,22.58c0,5.8-3.59,10.51-8,10.51s-8-4.71-8-10.51,3.59-6.83,8-6.83S72.46,16.77,72.46,22.58Z" fill="#3f3e3d"/>
      <path d="M74.92,19.35c0,7.59-4.69,13.74-10.48,13.74S54,26.94,54,19.35s4.7-8.94,10.48-8.94S74.92,11.76,74.92,19.35Z" fill="none" stroke="#333" stroke-linecap="round" stroke-linejoin="round" stroke-width="4"/>
      <g>
        <polygon points="80.46 81.53 64.55 102.32 48.63 81.53 38.75 86.07 64.36 121.05 90.18 85.99 80.46 81.53" fill="#edf7f6"/>
        <polygon points="38.75 86.07 64.36 121.05 68.54 115.42 44.17 83.58 38.75 86.07" fill="#d5e7e5"/>
        <polygon points="67.56 106.26 71.51 111.42 90.18 85.99 84.92 83.58 67.56 106.26" fill="#d5e7e5"/>
      </g>
      <g>
        <g>
          <rect x="34.85" y="93.86" width="4.7" height="4.7" rx="1.62" ry="1.62" fill="#6681af"/>
          <rect x="40.22" y="101.35" width="4.7" height="4.7" rx="1.62" ry="1.62" fill="#6681af"/>
          <rect x="45.6" y="108.84" width="4.7" height="4.7" rx="1.62" ry="1.62" fill="#6681af"/>
          <rect x="50.97" y="116.33" width="4.7" height="4.7" rx="1.62" ry="1.62" fill="#6681af"/>
          <line x1="45.91" y1="121.65" x2="23.37" y2="87" fill="none" stroke="#333" stroke-linejoin="round" stroke-width="3"/>
        </g>
        <g>
          <rect x="89.4" y="93.86" width="4.7" height="4.7" rx="1.62" ry="1.62" fill="#6681af"/>
          <rect x="84.02" y="101.35" width="4.7" height="4.7" rx="1.62" ry="1.62" fill="#6681af"/>
          <rect x="78.65" y="108.84" width="4.7" height="4.7" rx="1.62" ry="1.62" fill="#6681af"/>
          <rect x="73.27" y="116.33" width="4.7" height="4.7" rx="1.62" ry="1.62" fill="#6681af"/>
          <line x1="83.03" y1="121.65" x2="105.57" y2="87" fill="none" stroke="#333" stroke-linejoin="round" stroke-width="3"/>
        </g>
      </g>
      <g>
        <g>
          <line x1="20.55" y1="39.49" x2="26.55" y2="43.24" fill="none" stroke="#333" stroke-miterlimit="10" stroke-width="3"/>
          <line x1="20.44" y1="48.44" x2="26.85" y2="48.44" fill="none" stroke="#333" stroke-miterlimit="10" stroke-width="3"/>
        </g>
        <g>
          <line x1="108.54" y1="39.49" x2="102.54" y2="43.24" fill="none" stroke="#333" stroke-miterlimit="10" stroke-width="3"/>
          <line x1="108.65" y1="48.44" x2="102.24" y2="48.44" fill="none" stroke="#333" stroke-miterlimit="10" stroke-width="3"/>
        </g>
      </g>
      <g>
        <g>
          <g>
            <g>
              <path d="M86.15,73.19a.9.9,0,0,0,.84.56h7.17a.9.9,0,0,0,.84-.56.91.91,0,0,0-.2-1l-3.58-3.58a.92.92,0,0,0-.64-.27.91.91,0,0,0-.65.27L86.35,72.2A.91.91,0,0,0,86.15,73.19Z" fill="#e8a146"/>
              <path d="M86.15,65.35a.9.9,0,0,0,.84.56h7.17a.91.91,0,0,0,.64-1.55l-3.58-3.59a1,1,0,0,0-.64-.26.94.94,0,0,0-.65.26l-3.58,3.59A.91.91,0,0,0,86.15,65.35Z" fill="#e8a146"/>
              <path d="M86.15,57.5a.91.91,0,0,0,.84.57h7.17a.91.91,0,0,0,.64-1.55l-3.58-3.59a.92.92,0,0,0-.64-.27.91.91,0,0,0-.65.27l-3.58,3.59A.89.89,0,0,0,86.15,57.5Z" fill="#e8a146"/>
            </g>
            <g>
              <path d="M97.81,37.64a7.24,7.24,0,1,1-7.23-7.24A7.24,7.24,0,0,1,97.81,37.64Z" fill="#e8a146"/>
              <path d="M94.19,37.64A3.62,3.62,0,1,1,90.58,34,3.62,3.62,0,0,1,94.19,37.64Z" fill="#e58e46"/>
            </g>
          </g>
          <path d="M92.26,48.78a1.69,1.69,0,1,1-1.68-1.68A1.69,1.69,0,0,1,92.26,48.78Z" fill="#e58e46"/>
        </g>
        <g>
          <g>
            <g>
              <path d="M33.89,73.19a.89.89,0,0,0,.84.56H41.9a.9.9,0,0,0,.83-.56.91.91,0,0,0-.19-1L39,68.62a.89.89,0,0,0-1.28,0L34.08,72.2A.93.93,0,0,0,33.89,73.19Z" fill="#e8a146"/>
              <path d="M33.89,65.35a.89.89,0,0,0,.84.56H41.9a.91.91,0,0,0,.64-1.55L39,60.77a.92.92,0,0,0-1.28,0l-3.59,3.59A.93.93,0,0,0,33.89,65.35Z" fill="#e8a146"/>
              <path d="M33.89,57.5a.9.9,0,0,0,.84.57H41.9a.91.91,0,0,0,.64-1.55L39,52.93a.89.89,0,0,0-1.28,0l-3.59,3.59A.91.91,0,0,0,33.89,57.5Z" fill="#e8a146"/>
            </g>
            <g>
              <path d="M45.55,37.64a7.24,7.24,0,1,1-7.24-7.24A7.24,7.24,0,0,1,45.55,37.64Z" fill="#e8a146"/>
              <path d="M41.93,37.64A3.62,3.62,0,1,1,38.31,34,3.62,3.62,0,0,1,41.93,37.64Z" fill="#e58e46"/>
            </g>
          </g>
          <path d="M40,48.78a1.68,1.68,0,1,1-1.68-1.68A1.69,1.69,0,0,1,40,48.78Z" fill="#e58e46"/>
        </g>
      </g>
    </g>
    <line x1="63.36" y1="68.21" x2="65.96" y2="68.21" fill="none" stroke="#ae4355" stroke-linecap="round" stroke-miterlimit="10" stroke-width="2"/>
    <path d="M61.36,62.43l1.39.38a5.55,5.55,0,0,0,3.6,0l1.43-.39" fill="none" stroke="#333" stroke-linecap="round" stroke-miterlimit="10" stroke-width="2"/>
    <polyline points="38.75 86.07 48.63 81.53 71.51 111.42" fill="none" stroke="#333" stroke-miterlimit="10" stroke-width="3"/>
    <polyline points="90.18 85.99 80.46 81.53 64.55 102.32" fill="none" stroke="#333" stroke-miterlimit="10" stroke-width="3"/>
    <path d="M64.36,121.05,92.51,82.83s21-3.32,22.44,29.55a126.86,126.86,0,0,1-50.59,10.67A125.55,125.55,0,0,1,14,112.38c1.41-32.87,22.44-29.55,22.44-29.55Z" fill="none" stroke="#333" stroke-linejoin="round" stroke-width="4"/>
  </g>
</svg>
