<svg id="Layer_1" data-name="Layer 1" xmlns="http://www.w3.org/2000/svg" viewBox="0 0 128 128">
  <title>joseph-stalin</title>
  <g>
    <path d="M86.88,80.07c3.54-2.85,3.74-6.07,3.27-9.46C89.28,64.17,85,63.1,85,53H41c0,10.1-4.12,11.17-5,17.61a10.25,10.25,0,0,0,3.27,9.46C41.14,82,49.86,87.39,63,91,63,91,78.91,86.5,86.88,80.07Z" fill="#333"/>
    <path d="M41.63,70.61c.85-6.28,4.86-7.39,5.06-16.8H41.07c0,10.1-4.19,10.36-5.07,16.8a10.25,10.25,0,0,0,3.27,9.46c1.07,1.07,4.34,3.28,9.38,5.66a46.54,46.54,0,0,1-4.57-5.47C41.07,76.55,41.17,74,41.63,70.61Z" fill="#3d3f3f"/>
    <path d="M86.88,80.07c3.54-2.85,3.74-6.07,3.27-9.46C89.28,64.17,85,63.1,85,53H41c0,10.1-4.12,11.17-5,17.61a10.25,10.25,0,0,0,3.27,9.46C41.14,82,49.86,87.39,63,91,63,91,78.91,86.5,86.88,80.07Z" fill="none" stroke="#333" stroke-linecap="round" stroke-linejoin="round" stroke-width="2.67"/>
    <g>
      <path d="M112.46,101.39c-.89-4.52-5-8.45-9.46-9.58-11-2.73-22.25-6-40-6s-28.87,3.28-40,6a12.66,12.66,0,0,0-9,9.56l-.66,3.95c2.33,1.4,23.4,10.6,49.92,10.56,28.05,0,49.46-10.23,49.79-10.5Z" fill="#95dd66"/>
      <path d="M103.67,97.82l-9.18-2.25Q90.77,94.66,87,94V83a5.2,5.2,0,0,0-5.19-5.2H44.19A5.2,5.2,0,0,0,39,83v11q-3.54.66-7,1.51l-9.18,2.25a11.84,11.84,0,0,0-8.54,8.06,125,125,0,0,0,49,9.93,125,125,0,0,0,49-9.93A11.81,11.81,0,0,0,103.67,97.82Z" fill="#76ce42"/>
      <path d="M101,109.89c-2.91.92-6.26,1.86-10,2.71V88.9c3.47.77,6.76,1.61,10,2.42Z" fill="#b1bcaa"/>
      <path d="M91,94.92c6.79,1.47,3,.69,10,2.35v12.58c-4.72,1.51-7.56,2.17-10,2.73Z" fill="#9b9b9b"/>
      <line x1="101" y1="91.81" x2="101" y2="109.89" fill="none" stroke="#333" stroke-linecap="round" stroke-linejoin="round" stroke-width="3"/>
      <line x1="91" y1="89.81" x2="91" y2="111.81" fill="none" stroke="#333" stroke-linecap="round" stroke-linejoin="round" stroke-width="3"/>
      <path d="M25,109.89c2.91.92,6.26,1.86,10,2.71V88.9c-3.47.77-6.76,1.61-10,2.42Z" fill="#b1bcaa"/>
      <path d="M35,94.92c-6.79,1.47-3,.69-10,2.35v12.58c4.72,1.51,7.56,2.17,10,2.73Z" fill="#9b9b9b"/>
    </g>
    <path d="M39,95.2V81.81a4,4,0,0,1,4-4H83a4,4,0,0,1,4,4V95.2" fill="none" stroke="#333" stroke-miterlimit="10" stroke-width="4"/>
    <path d="M39,88.08c-5.76,1.11-10.89,2.47-16,3.73a12.78,12.78,0,0,0-9,9.56L13,105.81c2.33,1.4,23.48,10,50,10,28.05,0,49.67-9.71,50-10a22.61,22.61,0,0,0-.54-4.42A13.4,13.4,0,0,0,103,91.81c-5.06-1.26-10.19-2.64-16-3.75" fill="none" stroke="#333" stroke-linejoin="round" stroke-width="4"/>
    <g>
      <path d="M80.53,89.35,77,83.81C74.52,92.58,68.28,96,63,100.27,58.33,96.66,51.57,92.91,49,83.81l-3.5,5.54v14.46l2.65-1.38a60.25,60.25,0,0,0,4.63,13c3.38.29,6.8.45,10.25.45s6.78-.15,10.12-.44a61.43,61.43,0,0,0,4.65-13l2.76,1.44Z" fill="#cdd1cb"/>
      <path d="M58.52,96.31l4.37,4.29-4.37-1.28-7.05,6A.76.76,0,0,1,50.3,105L49,101.24Z" fill="#a5a5a5"/>
      <path d="M67.48,96.37l-4.37,4.3,4.37-1.28,7,6A.76.76,0,0,0,75.7,105l1.53-3.58Z" fill="#a5a5a5"/>
      <path d="M48.1,101.75a66,66,0,0,0,4.65,13.65c3.38.29,6.8.45,10.25.45s6.78-.15,10.12-.44a67.32,67.32,0,0,0,4.78-13.66" fill="none" stroke="#333" stroke-linejoin="round" stroke-width="3"/>
      <circle cx="67.27" cy="104.16" r="1.22" fill="#333"/>
      <line x1="63" y1="100.24" x2="63" y2="115.85" fill="none" stroke="#333" stroke-linecap="round" stroke-linejoin="round" stroke-width="3"/>
      <polyline points="67.48 97.02 63 100.24 58.52 97.02" fill="none" stroke="#333" stroke-linecap="round" stroke-linejoin="round" stroke-width="2.63"/>
      <polyline points="48.98 83.81 45 87.81 45 103.81 57 95.81" fill="#d8dbd7" stroke="#333" stroke-linecap="round" stroke-linejoin="round" stroke-width="3"/>
    </g>
    <g>
      <g>
        <ellipse cx="63.01" cy="43.41" rx="21.88" ry="22.09" fill="none" stroke="#333" stroke-linecap="round" stroke-linejoin="round" stroke-width="3.22"/>
        <g>
          <path d="M51,88.54c3.45,6,9,9.18,12,11.25,2.94-2.06,8.55-5.28,12-11.26V75.79H51Z" fill="#ae8164"/>
          <path d="M75,75.79H51v6.7L64.44,98.81c3.09-2.08,7.61-5.17,10.56-10.28Z" fill="#a47c61"/>
          <line x1="51" y1="89.2" x2="51" y2="79.2" fill="none" stroke="#333" stroke-linejoin="round" stroke-width="3"/>
          <line x1="75" y1="89.2" x2="75" y2="79.2" fill="none" stroke="#333" stroke-linejoin="round" stroke-width="3"/>
        </g>
        <g>
          <path d="M63,25.5c16.08,0,21,9.17,21,20v4c3.46,0,4.56,3.41,4,8-.48,3.9-2,8-6,8v3c0,6-4.78,8.7-10.36,14.5C68,86.83,65.43,86.5,63,86.5s-5,.33-8.64-3.5C48.78,77.2,44,74.5,44,68.5v-3c-4,0-5.52-4.1-6-8-.56-4.59.54-8,4-8v-4C42,34.67,46.92,25.5,63,25.5Z" fill="#ae8164"/>
          <path d="M63,57.15c11.85,0,21.8-2.32,24.92-3.74-.41-2.37-1.65-3.91-4-3.91v-4c0-10.83-4.92-20-21-20s-21,9.17-21,20v4c-2.3,0-3.54,1.52-4,3.88C41.06,54.81,51.08,57.15,63,57.15Z" fill="#a47c61"/>
          <path d="M84,49.5v-4c0-10.83-4.92-20-21-20-1.25,0-2.4.07-3.52.18-3.41,13.7-5.82,29-5.65,40.83,0,4,.41,10.56,1,16.9,3.45,3.36,5.88,3.09,8.21,3.09s5,.33,8.64-3.5C77.22,77.2,82,74.5,82,68.5v-3c4,0,5.52-4.1,6-8C88.56,52.91,87.46,49.5,84,49.5Z" fill="#a47c61"/>
          <path d="M84,49.5v-4c0-10.83-4.92-20-21-20-1.25,0-2.4.07-3.52.18-3.41,13.7-5.82,29-5.65,40.83,0,4,.41,10.56,1,16.9,3.45,3.36,5.88,3.09,8.21,3.09s5,.33,8.64-3.5C77.22,77.2,82,74.5,82,68.5v-3c4,0,5.52-4.1,6-8C88.56,52.91,87.46,49.5,84,49.5Z" fill="#a47c61"/>
          <path d="M63,25.5c-1.25,0-2.4.07-3.52.18a199,199,0,0,0-5.29,31c2.77.26,5.74.43,8.85.43,11.85,0,21.8-2.32,24.92-3.74-.41-2.37-1.65-3.91-4-3.91v-4C84,34.67,79.08,25.5,63,25.5Z" fill="#9b755c"/>
          <path d="M63,25.5c16.08,0,21,9.17,21,20,0,.63.06,3.37,0,4,3.46,0,4.56,3.41,4,8-.48,3.9-2,8-6,8v3c0,6-4.84,8.58-10.42,14.38C67.9,86.71,65.43,86.5,63,86.5s-5,.21-8.7-3.62C48.72,77.08,44,74.5,44,68.5v-3c-4,0-5.52-4.1-6-8-.56-4.59.54-8,4-8-.06-.63,0-3.37,0-4C42,34.67,46.92,25.5,63,25.5Z" fill="none" stroke="#333" stroke-linejoin="round" stroke-width="4"/>
        </g>
        <circle cx="53.82" cy="58" r="1.5" fill="#333"/>
      </g>
      <circle cx="72.18" cy="58" r="1.5" fill="#333"/>
      <line x1="59.2" y1="75.13" x2="67.2" y2="75.13" fill="none" stroke="#333" stroke-linecap="round" stroke-miterlimit="10" stroke-width="2"/>
      <line x1="62" y1="78.37" x2="64.6" y2="78.37" fill="none" stroke="#333" stroke-linecap="round" stroke-miterlimit="10" stroke-width="2"/>
      <path d="M59.2,69.13l2.2.6a5.55,5.55,0,0,0,3.6,0l2.2-.6" fill="none" stroke="#333" stroke-linecap="round" stroke-miterlimit="10" stroke-width="2"/>
    </g>
    <g>
      <path d="M63,42.32c4,7.12,8.12,6,19,7.91v6.11c0-5.27,2.88-7,2.88-13.93,0-7.87-4.66-22.09-21.88-22.09S41.13,34.54,41.13,42.41c0,6.89,2.88,8.66,2.88,13.93V50.23C54.89,48.32,59,49.44,63,42.32Z" fill="#333"/>
      <path d="M63,41.64a2.91,2.91,0,0,1,.9.86l.39.6c.24.35.49.7.76,1a9.31,9.31,0,0,0,1.8,1.75,11,11,0,0,0,4.64,1.86c1.71.33,3.5.52,5.29.74s3.6.45,5.39.75a1,1,0,0,1,.84,1v0l.06,6.11H80.94A14.14,14.14,0,0,1,81.3,53,26.12,26.12,0,0,1,82.24,50a20.4,20.4,0,0,0,1.37-5.67A23.25,23.25,0,0,0,81.52,33a18.52,18.52,0,0,0-7.46-8.46A22.06,22.06,0,0,0,63,21.82a21.46,21.46,0,0,0-11,2.75A18.47,18.47,0,0,0,44.57,33a23.48,23.48,0,0,0-2.11,11.31A20.32,20.32,0,0,0,43.79,50,26.9,26.9,0,0,1,44.73,53a14.68,14.68,0,0,1,.34,3.3H42.94L43,50.23v0a1,1,0,0,1,.82-.94c1.79-.29,3.6-.53,5.39-.75s3.57-.41,5.29-.75a10.94,10.94,0,0,0,4.64-1.87A9.61,9.61,0,0,0,61,44.14c.26-.34.52-.68.76-1l.38-.6A2.84,2.84,0,0,1,63,41.64ZM63,43a.71.71,0,0,0,.22.3c0,.11-.22.38-.33.55-.25.4-.52.79-.8,1.17a11.91,11.91,0,0,1-2,2.07,12.63,12.63,0,0,1-5.22,2.29c-1.82.41-3.62.65-5.4.93s-3.54.54-5.29.87l.81-1,.08,6.11a1.07,1.07,0,1,1-2.13,0h0v0a15.05,15.05,0,0,0-1.32-5.57A22.78,22.78,0,0,1,40,44.54,25.49,25.49,0,0,1,42,31.87,21.29,21.29,0,0,1,50.45,22,24.44,24.44,0,0,1,63,18.82a23.87,23.87,0,0,1,12.52,3.23,21.3,21.3,0,0,1,8.38,9.85A25.67,25.67,0,0,1,86,44.53a22.48,22.48,0,0,1-1.61,6.23,15.07,15.07,0,0,0-1.28,5.58v0A1.08,1.08,0,0,1,82,57.42a1.06,1.06,0,0,1-1.06-1.07h0l0-6.11.84,1c-1.75-.32-3.52-.6-5.3-.87s-3.57-.52-5.39-.93a12.69,12.69,0,0,1-5.22-2.32,10.93,10.93,0,0,1-2-2.07c-.28-.38-.55-.77-.8-1.17l-.33-.55A.69.69,0,0,0,63,43Z" fill="#333"/>
    </g>
    <g>
      <g>
        <path d="M64,15.64H62.15c-13.83,0-25,11.63-25.06,26v4.92C37.09,47.63,48.68,51,63,51s26-3.4,26-4.49V41.59C89,27.29,77.78,15.69,64,15.64Z" fill="#f9cf00"/>
        <path d="M44.81,49.2l0-1.86c0-14.3,11.23-25.89,25-25.92H71.7A24,24,0,0,1,82,23.75l-.3-.33-.25-.26c-.23-.24-.47-.47-.71-.7a.94.94,0,0,0-.1-.1,24.53,24.53,0,0,0-16.74-6.72H62.11c-13.81,0-25,11.63-25,26v4.92C37.09,47.08,40,48.21,44.81,49.2Z" fill="#ffd836"/>
        <path d="M63.92,15.64H62.11C48.3,15.67,37,27.37,37,41.68v4.5c0,2,11.66,4.82,26,4.82s26.1-2.87,26.1-4.32v-5C89.07,27.38,77.72,15.69,63.92,15.64Z" fill="none" stroke="#333" stroke-linejoin="round" stroke-width="4"/>
        <path d="M88.93,46.64C88.93,48.26,77.36,51,63,51s-25.93-2.78-25.93-4.36,11.57-3,25.92-3S88.93,45,88.93,46.64Z" fill="#ffd836"/>
        <path d="M38.5,47.71C42,49.23,51.64,51,63,51s21-1.73,24.52-3.25C84,46.56,74.39,47,63,47S42,46.55,38.5,47.71Z" fill="#f9cf00"/>
        <path d="M37.52,44.65v2.58a69.85,69.85,0,0,1,8.89-2.86C44.29,44.2,39.64,44.07,37.52,44.65Z" fill="#333"/>
        <path d="M88.51,44.65v2.58a69.56,69.56,0,0,0-8.9-2.86C81.74,44.2,86.39,44.07,88.51,44.65Z" fill="#333"/>
        <path d="M43.58,28.47,43,27.15a6.2,6.2,0,0,1,2.9-8,1,1,0,0,1,1.35.53l1.1,2.8" fill="#ffd836" stroke="#333" stroke-linejoin="round" stroke-width="4"/>
        <path d="M82.52,28.47l.57-1.32a6.2,6.2,0,0,0-2.89-8,1,1,0,0,0-1.35.53l-1.1,2.8" fill="#f9cf00" stroke="#333" stroke-linejoin="round" stroke-width="4"/>
        <path d="M63.05,9.2a7.37,7.37,0,0,0-7.24,7.5V27.2H70.28V16.7A7.37,7.37,0,0,0,63.05,9.2Z" fill="#ffd836"/>
        <path d="M63.05,15.2a7.37,7.37,0,0,0-7.24,7.5v5.5H70.28V22.7A7.37,7.37,0,0,0,63.05,15.2Z" fill="#f9cf00"/>
        <path d="M69,25.2V15.42a6,6,0,1,0-12,0V25.2" fill="none" stroke="#333" stroke-linejoin="round" stroke-width="4"/>
      </g>
      <path d="M37.09,46.64C37.09,48.26,48.66,51,63,51s25.93-2.78,25.93-4.36" fill="none" stroke="#333" stroke-linecap="round" stroke-linejoin="round" stroke-width="4"/>
    </g>
    <polyline points="77.03 83.81 81 87.81 81 103.81 69 95.81" fill="#d8dbd7" stroke="#333" stroke-linecap="round" stroke-linejoin="round" stroke-width="3"/>
    <path d="M77,83.81c-2.68,9.11-10.4,13.44-14,16-3.66-2.56-11.34-6.83-14-16" fill="none" stroke="#333" stroke-linecap="round" stroke-linejoin="round" stroke-width="3"/>
    <line x1="25" y1="91.81" x2="25" y2="109.89" fill="none" stroke="#333" stroke-linecap="round" stroke-linejoin="round" stroke-width="3"/>
    <line x1="35" y1="89.81" x2="35" y2="111.81" fill="none" stroke="#333" stroke-linecap="round" stroke-linejoin="round" stroke-width="3"/>
  </g>
</svg>
