<svg id="Layer_1" data-name="Layer 1" xmlns="http://www.w3.org/2000/svg" viewBox="0 0 128 128">
  <title>donald-trump</title>
  <g>
    <path d="M119.41,102.26A14.58,14.58,0,0,0,109.3,90.85L79.55,84.21v.07H46.47s0,0,0-.07L16.72,90.85a14.55,14.55,0,0,0-10.1,11.41L6,105.89A140.89,140.89,0,0,0,63,118h.08a140.89,140.89,0,0,0,57-12.11Z" fill="#656e70"/>
    <path d="M119.41,102.26A14.58,14.58,0,0,0,109.3,90.85L79.55,84.21v.07H59.2l31.63,30.88A140.43,140.43,0,0,0,120,105.89Z" fill="#5e6668"/>
    <path d="M16.72,90.85A14.51,14.51,0,0,0,7.23,100a5.71,5.71,0,0,0,6.31-1.64,6.82,6.82,0,0,1,3.18-2l25.83-7a5.32,5.32,0,0,0,3.92-5.12Z" fill="#787f80"/>
    <path d="M87,77.16V43.75c0-10.32-.82-14.66-3.13-34.6a1.3,1.3,0,0,0-2.49-.36l-3.61,8.42S72.2,13.52,63,13.52,48.2,17.21,48.2,17.21L44.59,8.79a1.3,1.3,0,0,0-2.49.36C39.78,29.14,39,33.44,39,43.76v33.4L16.72,90.85l5.51-.59a30.38,30.38,0,0,1,17.64,3.51c21.74,11.77,24.44,11.75,46.35,0a30.37,30.37,0,0,1,17.54-3.47l5.54.58Z" fill="#333"/>
    <path d="M81.7,82l27.6,8.85a14.58,14.58,0,0,1,10.11,11.41l.59,3.63A140.89,140.89,0,0,1,63.05,118H63A140.89,140.89,0,0,1,6,105.89l.6-3.63a14.55,14.55,0,0,1,10.1-11.41L45,82" fill="none" stroke="#333" stroke-linejoin="round" stroke-width="4"/>
    <path d="M87,77.16V43.75c0-10.32-.82-14.66-3.13-34.6a1.3,1.3,0,0,0-2.49-.36l-3.61,8.42S72.2,13.52,63,13.52l-.65,0h0A120.58,120.58,0,0,0,55,56.68c0,1.67,0,3.47,0,5.32H47.3V72L63.68,88.38A14.68,14.68,0,0,0,82.06,90.3l12.53-8.46ZM63,65.59a1.63,1.63,0,0,1-1-.34L57.57,62H57l5.3-10.62a.37.37,0,0,1,.7.16Z" fill="#222"/>
    <path d="M56.94,55.06h-8a2,2,0,0,1-1.79-1.12l-2-4a2,2,0,0,1,.33-2.24,2,2,0,0,1,2.22-.49l10,4a2,2,0,0,1,1.22,2.23A2,2,0,0,1,56.94,55.06Z" fill="#777"/>
    <path d="M77,55.06H69a2,2,0,0,1-.75-3.85l10-4a2,2,0,0,1,2.54,2.73l-2,4A2,2,0,0,1,77,55.06Z" fill="#777"/>
    <path d="M68.37,62,64,65.25a1.65,1.65,0,0,1-2,0L57.57,62H45v3.84c0,4.63,5.89,11.74,11.89,15.26C58.48,82,61.17,82,63,82s4.48,0,6.1-.91c6-3.52,11.9-10.63,11.9-15.26V62Z" fill="#ae8164"/>
    <path d="M64,65.25a1.65,1.65,0,0,1-2,0L57.57,62H55c0,.9,0,1.8,0,2.69,0,4.58,0,10,.21,15.33.56.38,1.11.75,1.67,1.08C58.48,82,61.17,82,63,82s4.48,0,6.1-.91c6-3.52,11.9-10.63,11.9-15.26V62H68.37Z" fill="#a47c61"/>
    <path d="M64,65.25a1.65,1.65,0,0,1-2,0L57.57,62H45v2H58.85l2.79,2.07a4.06,4.06,0,0,0,4.85.11L69.43,64H79v1.84c0,3.68-5.3,10.25-10.91,13.53-1.1.64-3.45.62-4.9.64H63a1.92,1.92,0,0,0-1.9,2L63,82c1.8,0,4.48,0,6.1-.91,6-3.52,11.9-10.63,11.9-15.26V62H68.37Z" fill="#8e6751"/>
    <polyline points="54.97 71.6 59.77 70 66.17 70 70.97 71.6" fill="none" stroke="#333" stroke-linecap="round" stroke-miterlimit="10" stroke-width="2"/>
    <line x1="58.97" y1="74" x2="66.97" y2="74" fill="none" stroke="#333" stroke-linecap="round" stroke-miterlimit="10" stroke-width="2"/>
    <path d="M81.35,8.79l-3.61,8.42a14,14,0,0,0-1.31-.72A10.37,10.37,0,0,0,78.65,23a26.81,26.81,0,0,1,5.58,17.06V59.35A2.65,2.65,0,0,0,86.88,62H87V43.75c0-10.32-.82-14.66-3.13-34.6A1.3,1.3,0,0,0,81.35,8.79Z" fill="#333"/>
  </g>
</svg>
