<svg id="Layer_1" data-name="Layer 1" xmlns="http://www.w3.org/2000/svg" viewBox="0 0 128 128">
  <title>luis-suarez</title>
  <g>
    <path d="M108,86.2c-10-2-14.35-3.5-28-6.2H48c-13.64,2.88-18,4.23-28,6.2C12,88.23,8,96,8,102a136,136,0,0,0,56,12,134.72,134.72,0,0,0,56-12C120,96,116,88.23,108,86.2Z" fill="#b9e9f9"/>
    <path d="M108,92.2c-10-2-14.35-3.5-28-6.2H48c-13.64,2.88-18,4.23-28,6.2A15.94,15.94,0,0,0,9,102.43,135.84,135.84,0,0,0,64,114a134.55,134.55,0,0,0,54.94-11.54A16,16,0,0,0,108,92.2Z" fill="#92d1ea"/>
    <path d="M108,86.2c-10-2-14.35-3.5-28-6.2a29.11,29.11,0,0,1-14.17,9.4l25.33,21.88A138.21,138.21,0,0,0,120,102C120,96,116,88.23,108,86.2Z" fill="#92d1ea"/>
    <path d="M108,92.2c-10-2-14.35-3.5-28-6.2H73.2a33.24,33.24,0,0,1-7.37,3.4l25.33,21.88h0a136.78,136.78,0,0,0,13.85-3.6q6.83-2.17,13.52-5.07l.38-.16A16,16,0,0,0,108,92.2Z" fill="#7fc2d6"/>
    <path d="M86.69,81.59l.12-.18c-2-.44-4.24-.9-6.81-1.41H48c-2.53.53-4.73,1-6.72,1.46,0,.05,0,.12.09.18C48.13,89.94,52.51,93.25,64,96.45,75.18,93.34,79.68,90.13,86.69,81.59Z" fill="#faffff"/>
    <polyline points="31.48 103 36 103 36 94 32 94 32 98.5 36 98.5" fill="none" stroke="#3e64af" stroke-linejoin="bevel" stroke-width="2"/>
    <path d="M48,68V80c3.94,4.9,9.18,8.07,16,10,6.81-1.89,12.06-5.08,16-10V68Z" fill="#e8b992"/>
    <path d="M80,68H48v6L66.35,89.24A28.93,28.93,0,0,0,80,80Z" fill="#ddad8a"/>
    <path d="M80,80a29.11,29.11,0,0,1-14.17,9.4L71.21,94c6.35-2.62,10.21-6,15.48-12.45l.12-.18C84.8,81,82.57,80.51,80,80Z" fill="#f0f7f7"/>
    <path d="M48,70V80c3.94,4.9,9.18,8.07,16,10,6.81-1.89,12.06-5.08,16-10V70Z" fill="none" stroke="#333" stroke-linecap="square" stroke-linejoin="round" stroke-width="4"/>
    <path d="M88,50c0-3.92-2-8-5.34-7.06V40c0-13.38-4.57-22-18.6-22S45.47,26.62,45.47,40v2.94C42,42,40,46,40,50l0,4,3.14,6h2s0,0,1,6a10.65,10.65,0,0,0,1.54,4c1.37,2.11,3.8,3.69,8.46,8a7.85,7.85,0,0,0,5.11,2H67a7.85,7.85,0,0,0,5.11-2c4.67-4.31,7.09-5.89,8.46-8a10.33,10.33,0,0,0,1.54-4c1-6,1-6,1-6h2l3-6Z" fill="#e8b992"/>
    <g>
      <path d="M64.06,80h0Z" fill="#ddad8a"/>
      <path d="M82.66,42.94V40c0-13.38-4.57-22-18.6-22a28.67,28.67,0,0,0-3.58.24C57.69,32.93,54,50.71,54,58V76.14c.64.56,1.31,1.17,2.06,1.86.08.07.17.12.25.18A14.53,14.53,0,0,0,64.05,80c3,0,6.06-.57,8.06-2l1.11-1,0,0,0,0c3.84-3.46,6-5,7.2-6.86a10.33,10.33,0,0,0,1.54-4c1-6,1-6,1-6H84a3.84,3.84,0,0,0,1.1-.17L88,54V50C88,46.08,86,42,82.66,42.94Z" fill="#ddad8a"/>
    </g>
    <path d="M64.06,80h0Z" fill="#ddad8a"/>
    <line x1="66.97" y1="71" x2="60.97" y2="71" fill="none" stroke="#333" stroke-miterlimit="10" stroke-width="2"/>
    <g>
      <circle cx="72.5" cy="49.5" r="1.5" fill="#333"/>
      <circle cx="55.5" cy="49.5" r="1.5" fill="#333"/>
    </g>
    <path d="M60,60l2.2.6a5.55,5.55,0,0,0,3.6,0L68,60" fill="none" stroke="#333" stroke-linecap="round" stroke-miterlimit="10" stroke-width="2"/>
    <path d="M81,52c0-6,10-11.55,5-23.94C81.69,17.23,68,20,68,14c-8,0-21.65,3.23-26,14.06C37,40.69,47,46,47,52c0-1.85,0-5.9,3-8a1.15,1.15,0,0,0,.28-1.58l-3-2.56a2,2,0,0,1,.89-3c2.86-1.24,8.41-2.67,15.35.83a1.19,1.19,0,0,0,1,0c6.94-3.5,12.49-2.07,15.36-.83a2,2,0,0,1,.88,3l-3.06,2.56A1.15,1.15,0,0,0,78,44C81,46.1,81,50.18,81,52Z" fill="#333" stroke="#333" stroke-linejoin="round" stroke-width="1.96"/>
    <path d="M88,50c0-3.92-2-8-5.34-7.06V40c0-13.38-4.57-22-18.6-22S45.47,26.62,45.47,40v2.94C42,42,40,46,40,50l0,4,3.14,6h2s0,0,1,6a10.65,10.65,0,0,0,1.54,4c1.37,2.11,3.8,3.69,8.46,8a7.85,7.85,0,0,0,5.11,2H67a7.85,7.85,0,0,0,5.11-2c4.67-4.31,7.09-5.89,8.46-8a10.33,10.33,0,0,0,1.54-4c1-6,1-6,1-6h2l3-6Z" fill="none" stroke="#333" stroke-linejoin="round" stroke-width="4"/>
    <path d="M48,80c-13.64,2.88-18,4.23-28,6.2C12,88.23,8,96,8,102a136,136,0,0,0,56,12,134.72,134.72,0,0,0,56-12c0-6-4-13.77-12-15.8-10-2-14.35-3.5-28-6.2" fill="none" stroke="#333" stroke-linecap="square" stroke-linejoin="round" stroke-width="4"/>
  </g>
  <rect x="61" y="66" width="6" height="3" rx="0.51" ry="0.51" fill="#fff"/>
  <polyline points="58 68 60 66 68.33 66 70.33 68" fill="none" stroke="#333" stroke-linejoin="round" stroke-width="2"/>
</svg>
