<svg id="Layer_1" data-name="Layer 1" xmlns="http://www.w3.org/2000/svg" viewBox="0 0 128 128">
  <title>vladimir-lenin</title>
  <g>
    <path d="M105,88.46c-10-2-12.36-3.28-26-6H47c-13.64,2.88-16,4-26,6-8,2-12,10-12,16a126.94,126.94,0,0,0,54,12,125.67,125.67,0,0,0,54-12C117,98.48,113,90.48,105,88.46Z" fill="#f4cf16"/>
    <path d="M105,88.46c-10-2-14.36-3.34-28-6A24.93,24.93,0,0,1,63.68,91l26.66,22.6a121.29,121.29,0,0,0,26.66-9.1C117,98.48,113,90.48,105,88.46Z" fill="#ddb819"/>
    <rect x="59.8" y="91.2" width="6.4" height="24.5" fill="#3e7a17"/>
    <path d="M87,84.48c-2.52-.54-4.52-1.32-8-2H47c-3.46.74-5.48,1.46-8,2l4,10h7a31.19,31.19,0,0,0,13,6,31.37,31.37,0,0,0,13-6h7Z" fill="#3e7a17"/>
    <path d="M49,72.48V83.72a26,26,0,0,0,14,8.76,26.19,26.19,0,0,0,14-8.76V72.48Z" fill="#e8b992"/>
    <path d="M47,75.1,66.28,91.4A28.61,28.61,0,0,0,79,82.48v-12H47Z" fill="#dba983"/>
    <path d="M49,82.72a24.28,24.28,0,0,0,14,9.76c6.82-2,10.3-5.1,14.26-10" fill="none" stroke="#333" stroke-linecap="round" stroke-linejoin="round" stroke-width="4"/>
    <path d="M49,82.72c-13.64,2.88-18,3.76-28,5.74s-9.22,6.36-12,16a126.94,126.94,0,0,0,54,12,125.67,125.67,0,0,0,54-12c-2-8-2-14-12-16s-14-3.28-27.74-6" fill="none" stroke="#333" stroke-linecap="round" stroke-linejoin="round" stroke-width="4"/>
    <polyline points="26.04 95.48 28 95.48 28 104.48" fill="none" stroke="#3e7a17" stroke-linejoin="bevel" stroke-width="2"/>
    <rect x="32" y="95.48" width="4" height="8" fill="none" stroke="#3e7a17" stroke-linejoin="bevel" stroke-width="2"/>
    <path d="M96.28,105,92,107.48,87.72,105A3.44,3.44,0,0,1,86,102V95.48H98v6.58A3.42,3.42,0,0,1,96.28,105Z" fill="#f4cf16" stroke="#2e5b10" stroke-linecap="square" stroke-linejoin="bevel" stroke-width="2"/>
    <path d="M83,42.48v-10C83,21.7,79,13.2,63,13.2S43,21.7,43,32.48v10c-8-6-8,6-7.2,9.26,2.8,11.34,9.2,6.32,9.2,6.74v6c0,6,2.44,6.22,8,12,3.66,3.82,6,4,10,4a11,11,0,0,0,10-4c5.56-5.78,8-6,8-12v-6c0-.46,6.46,4.7,9.22-6.74C91,48.48,91,36.48,83,42.48Z" fill="#e8b992"/>
    <path d="M83,42.48v-10C83,21.7,79,13.2,63,13.2S43,21.7,43,32.48v10c-8-6-8,6-7.2,9.26,2.8,11.34,9.2,6.32,9.2,6.74v6c0,6,2.44,6.22,8,12,3.66,3.82,6,4,10,4a11,11,0,0,0,10-4c5.56-5.78,8-6,8-12v-6c0-.46,6.46,4.7,9.22-6.74C91,48.48,91,36.48,83,42.48Z" fill="none" stroke="#343433" stroke-miterlimit="10" stroke-width="4"/>
    <path d="M59,56.48l2.2.6a5.55,5.55,0,0,0,3.6,0l2.2-.6" fill="none" stroke="#333" stroke-linecap="round" stroke-miterlimit="10" stroke-width="2"/>
    <circle cx="55" cy="47.98" r="1.5" fill="#343433"/>
    <circle cx="71" cy="47.98" r="1.5" fill="#343433"/>
    <polyline points="58 65.48 59 64.48 67 64.48" fill="none" stroke="#343433" stroke-linecap="round" stroke-miterlimit="10" stroke-width="2"/>
    <line x1="62" y1="68.48" x2="64" y2="68.48" fill="none" stroke="#343433" stroke-linecap="round" stroke-miterlimit="10" stroke-width="2"/>
    <g opacity="0.3">
      <path d="M55,64.48a8.68,8.68,0,0,1,8-4,8.68,8.68,0,0,1,8,4v10a8.63,8.63,0,0,1-8,4,8.7,8.7,0,0,1-8-4Z" fill="none" stroke="#333" stroke-linecap="round" stroke-miterlimit="10" stroke-width="3"/>
      <path d="M53.94,75.54l-7.78-8.22L45.8,67v-.46l.32-12a.88.88,0,1,1,1.76,0l.32,12-.36-.84,8.22,7.78a1.5,1.5,0,1,1-2,2.18Z" fill="#333"/>
      <path d="M69.94,73.42l8.16-7.84-.36.9.38-12a.88.88,0,1,1,1.76,0h0l.38,12V67l-.38.4L72,75.54a1.5,1.5,0,0,1-2.16-2Z" fill="#333"/>
    </g>
    <line x1="49" y1="84.48" x2="49" y2="72.48" fill="none" stroke="#333" stroke-linejoin="round" stroke-width="4"/>
    <line x1="77" y1="84.48" x2="77" y2="72.48" fill="none" stroke="#333" stroke-linejoin="round" stroke-width="4"/>
    <path d="M41.82,20.1,43,42.48s2,2,2,8v-12l4-4v-14H77v14l4,6v10c0-6,2-8,2-8v-24l-2,2-4-10v4l-8-8,2,6a41.49,41.49,0,0,0-16-4l4,2A20.43,20.43,0,0,0,41.82,20.1Z" fill="#343433" stroke="#343433" stroke-linecap="round" stroke-linejoin="round" stroke-width="2"/>
    <path d="M77,20.48s-8,16-18,22l8-18s-8,16-16,20l10-18s-8,12-16,16l4-12-4,4v-16H77Z" fill="#343433" stroke="#343433" stroke-linecap="round" stroke-linejoin="round" stroke-width="2"/>
    <path d="M77,20.48s-2,14-8,20v-14Z" fill="#343433" stroke="#343433" stroke-linecap="round" stroke-linejoin="round" stroke-width="2"/>
    <path d="M74.52,20.1A15.19,15.19,0,0,1,74,24.5a19,19,0,0,1-1.68,4.1,15.4,15.4,0,0,1-2.76,3.46,21.55,21.55,0,0,1-3.44,2.72.49.49,0,0,1-.64-.16.45.45,0,0,1,0-.56h0A29.53,29.53,0,0,0,68.28,31a34.89,34.89,0,0,0,2.26-3.38A22.3,22.3,0,0,0,72.4,24a18.93,18.93,0,0,0,1.2-3.9h0a.44.44,0,0,1,.51-.36h0A.44.44,0,0,1,74.52,20.1Z" fill="#444"/>
    <path d="M73.82,21.56a18.83,18.83,0,0,1-2.94,4.68,26.63,26.63,0,0,1-4,3.8,22.52,22.52,0,0,1-4.78,2.7,29.55,29.55,0,0,1-5.18,1.68.43.43,0,0,1-.53-.32v0a.43.43,0,0,1,.26-.52h0a51.41,51.41,0,0,0,4.72-2.3c1.52-.84,2.9-1.88,4.32-2.84a31.59,31.59,0,0,0,4-3.3,22.58,22.58,0,0,0,3.3-4h0a.46.46,0,0,1,.63-.14h0A.48.48,0,0,1,73.82,21.56Z" fill="#444"/>
    <path d="M66.18,20.82a22,22,0,0,1-3.84,5,33.24,33.24,0,0,1-4.86,4,30.21,30.21,0,0,1-5.64,2.72,41.52,41.52,0,0,1-6,1.72.46.46,0,0,1-.26-.88h0c1.88-.76,3.78-1.44,5.56-2.36s3.48-2,5.2-2.92a38.21,38.21,0,0,0,4.84-3.44,26.65,26.65,0,0,0,4.16-4.2h0a.47.47,0,0,1,.64,0A.46.46,0,0,1,66.18,20.82Z" fill="#444"/>
  </g>
</svg>
